<svg xmlns="http://www.w3.org/2000/svg" width="1200" height="760" viewBox="0 0 1200 760">
  <rect width="1200" height="760" fill="#f7fcf4"/>
  <rect x="55" y="42" width="1090" height="90" rx="18" fill="#ffffff" stroke="#e7ece6"/>
  <text x="88" y="82" font-family="Segoe UI, Arial, sans-serif" font-size="30" font-weight="800" fill="#171a25">Foodee MySQL Tables</text>
  <text x="88" y="111" font-family="Segoe UI, Arial, sans-serif" font-size="16" fill="#6f7480">Server run korlei tables create/check hoy and data ekhane show kore.</text>
  <rect x="924" y="70" width="175" height="38" rx="10" fill="#22951f"/>
  <text x="955" y="95" font-family="Segoe UI, Arial, sans-serif" font-size="15" font-weight="800" fill="#ffffff">DB Connected</text>

  <g font-family="Segoe UI, Arial, sans-serif">
    <rect x="55" y="158" width="150" height="90" rx="16" fill="#ffffff" stroke="#e7ece6"/>
    <text x="76" y="190" font-size="14" fill="#6f7480">categories</text>
    <text x="76" y="226" font-size="34" font-weight="900" fill="#22951f">10</text>

    <rect x="222" y="158" width="150" height="90" rx="16" fill="#ffffff" stroke="#e7ece6"/>
    <text x="243" y="190" font-size="14" fill="#6f7480">products</text>
    <text x="243" y="226" font-size="34" font-weight="900" fill="#22951f">29</text>

    <rect x="389" y="158" width="150" height="90" rx="16" fill="#ffffff" stroke="#e7ece6"/>
    <text x="410" y="190" font-size="14" fill="#6f7480">customers</text>
    <text x="410" y="226" font-size="34" font-weight="900" fill="#22951f">3</text>

    <rect x="556" y="158" width="150" height="90" rx="16" fill="#ffffff" stroke="#e7ece6"/>
    <text x="577" y="190" font-size="14" fill="#6f7480">orders</text>
    <text x="577" y="226" font-size="34" font-weight="900" fill="#22951f">2</text>

    <rect x="723" y="158" width="150" height="90" rx="16" fill="#ffffff" stroke="#e7ece6"/>
    <text x="744" y="190" font-size="14" fill="#6f7480">order_items</text>
    <text x="744" y="226" font-size="34" font-weight="900" fill="#22951f">5</text>

    <rect x="890" y="158" width="150" height="90" rx="16" fill="#ffffff" stroke="#e7ece6"/>
    <text x="911" y="190" font-size="14" fill="#6f7480">cart_events</text>
    <text x="911" y="226" font-size="34" font-weight="900" fill="#22951f">8</text>
  </g>

  <rect x="55" y="282" width="1090" height="200" rx="18" fill="#ffffff" stroke="#e7ece6"/>
  <text x="85" y="324" font-family="Segoe UI, Arial, sans-serif" font-size="24" font-weight="800" fill="#171a25">Orders Table</text>
  <rect x="85" y="348" width="1030" height="42" fill="#eef9ea"/>
  <g font-family="Segoe UI, Arial, sans-serif" font-size="14">
    <text x="105" y="375" font-weight="800" fill="#126f18">Order ID</text>
    <text x="245" y="375" font-weight="800" fill="#126f18">Customer</text>
    <text x="405" y="375" font-weight="800" fill="#126f18">Phone</text>
    <text x="575" y="375" font-weight="800" fill="#126f18">Food Items</text>
    <text x="840" y="375" font-weight="800" fill="#126f18">Total Bill</text>
    <text x="990" y="375" font-weight="800" fill="#126f18">Date</text>
    <line x1="85" y1="390" x2="1115" y2="390" stroke="#e7ece6"/>
    <text x="105" y="422" fill="#171a25">FD-1001</text>
    <text x="245" y="422" fill="#171a25">Tabassum</text>
    <text x="405" y="422" fill="#171a25">017XXXXXXXX</text>
    <text x="575" y="422" fill="#171a25">Double Stack Burger x1, Mojito x1</text>
    <text x="840" y="422" fill="#171a25" font-weight="800">BDT 489</text>
    <text x="990" y="422" fill="#6f7480">Jul 17</text>
    <line x1="85" y1="438" x2="1115" y2="438" stroke="#e7ece6"/>
    <text x="105" y="466" fill="#171a25">FD-1002</text>
    <text x="245" y="466" fill="#171a25">Nusrat</text>
    <text x="405" y="466" fill="#171a25">018XXXXXXXX</text>
    <text x="575" y="466" fill="#171a25">Supreme Pizza x1</text>
    <text x="840" y="466" fill="#171a25" font-weight="800">BDT 399</text>
    <text x="990" y="466" fill="#6f7480">Jul 17</text>
  </g>

  <rect x="55" y="512" width="1090" height="175" rx="18" fill="#ffffff" stroke="#e7ece6"/>
  <text x="85" y="554" font-family="Segoe UI, Arial, sans-serif" font-size="24" font-weight="800" fill="#171a25">Add To Cart Table</text>
  <rect x="85" y="578" width="1030" height="42" fill="#eef9ea"/>
  <g font-family="Segoe UI, Arial, sans-serif" font-size="14">
    <text x="105" y="605" font-weight="800" fill="#126f18">Session</text>
    <text x="300" y="605" font-weight="800" fill="#126f18">Action</text>
    <text x="470" y="605" font-weight="800" fill="#126f18">Food</text>
    <text x="735" y="605" font-weight="800" fill="#126f18">Qty</text>
    <text x="825" y="605" font-weight="800" fill="#126f18">Unit Price</text>
    <text x="980" y="605" font-weight="800" fill="#126f18">Cart Total</text>
    <line x1="85" y1="620" x2="1115" y2="620" stroke="#e7ece6"/>
    <text x="105" y="652" fill="#6f7480">607234-2C...</text>
    <text x="300" y="652" fill="#171a25">Added to cart</text>
    <text x="470" y="652" fill="#171a25">Double Stack Burger - Large</text>
    <text x="735" y="652" fill="#171a25">1</text>
    <text x="825" y="652" fill="#171a25">BDT 329</text>
    <text x="980" y="652" fill="#171a25" font-weight="800">BDT 329</text>
  </g>

  <text x="55" y="725" font-family="Segoe UI, Arial, sans-serif" font-size="15" fill="#6f7480">Demo picture: actual values will change when customer adds food or places an order.</text>
</svg>
